<?xml version="1.0" encoding="UTF-8" standalone="no"?>
<!-- Generated by SVGMaker - https://svgmaker.io -->
<!-- Prompt: nice lets not use green Use something elkse in blue gradeibt and add graduate hat to the teeth -->
<!-- Quality: manual -->
<!-- Type: edit -->
<!-- Created: 2026-01-06T15:46:19.196Z -->
<svg xmlns="http://www.w3.org/2000/svg" xmlns:xlink="http://www.w3.org/1999/xlink" version="1.1" width="1392" height="752" viewBox="0 0 2048 1106">
<desc>Created with SVGMaker Editor 2.2.1</desc>
<defs>
</defs>
<g transform="matrix(1 0 0 1.0004 1814.8499 552.8081)">
<linearGradient id="SVGID_490" gradientUnits="userSpaceOnUse" gradientTransform="matrix(1 0 0 1 0 0)" x1="1814.8" y1="704.767" x2="1812.67" y2="478.298">
<stop offset="0%" style="stop-color:rgb(11,38,123);stop-opacity: 1"></stop>
<stop offset="100%" style="stop-color:rgb(49,148,212);stop-opacity: 1"></stop>
</linearGradient>
<path transform=" translate(-1814.85, -552.6056)" style="fill: url(#SVGID_490)" stroke-linecap="round" d="M 1692.01 397.08 C 1706.88 396.46 1725.45 396.773 1740.68 396.825 C 1782.66 396.966 1834.05 395.64 1871.57 416.476 C 1898 431.144 1919.45 457.996 1927.68 487.09 C 1943.3 523.259 1940.02 587.272 1925.89 623.988 C 1887.4 724.01 1779.76 707.816 1691.91 707.167 L 1691.97 581.452 C 1691.99 561.462 1691.31 536.059 1692.16 516.364 C 1691.19 477.625 1691.98 436.031 1692.01 397.08 Z M 1750.1 472.53 C 1751.67 523.996 1749.4 576.293 1750.36 627.845 C 1750.55 637.509 1750.24 647.23 1750.73 656.887 C 1784.32 656.819 1823.52 659.969 1848.73 633.726 C 1881.83 599.274 1882.68 548.367 1870.42 505.208 C 1845.65 444.628 1806.45 448.873 1750.35 448.931 C 1750.85 454.793 1750.39 466.469 1750.1 472.53 Z"></path>
</g>
<g transform="matrix(1 0 0 1.0004 1809.6791 460.6472)">
<linearGradient id="SVGID_491" gradientUnits="userSpaceOnUse" gradientTransform="matrix(1 0 0 1 0 0)" x1="1808.21" y1="485.062" x2="1806.47" y2="396.78">
<stop offset="0%" style="stop-color:rgb(50,149,214);stop-opacity: 1"></stop>
<stop offset="100%" style="stop-color:rgb(68,194,250);stop-opacity: 1"></stop>
</linearGradient>
<path transform=" translate(-1809.6792, -460.4815)" style="fill: url(#SVGID_491)" stroke-linecap="round" d="M 1692.01 397.08 C 1706.88 396.46 1725.45 396.773 1740.68 396.825 C 1782.66 396.966 1834.05 395.64 1871.57 416.476 C 1898 431.144 1919.45 457.996 1927.68 487.09 C 1926.35 485.523 1923.84 482.466 1921.87 482.068 C 1902.55 478.183 1881.9 480.18 1863.01 484.671 C 1866.01 490.31 1872.01 499.3 1870.42 505.208 C 1845.65 444.628 1806.45 448.873 1750.35 448.931 C 1750.85 454.793 1750.39 466.469 1750.1 472.53 C 1749.46 474.946 1748.83 477.275 1748.31 479.724 C 1737.84 479.676 1702.03 481.378 1694.09 485.847 C 1694.22 497.121 1694.55 512.863 1694.21 523.895 L 1693.58 524.263 C 1693.1 521.661 1692.98 518.618 1692.16 516.364 C 1691.19 477.625 1691.98 436.031 1692.01 397.08 Z"></path>
</g>
<g transform="matrix(1 0 0 1.0004 1309.9408 511.4606)">
<linearGradient id="SVGID_492" gradientUnits="userSpaceOnUse" gradientTransform="matrix(1 0 0 1 0 0)" x1="1309" y1="510.669" x2="1310.24" y2="387.89">
<stop offset="0%" style="stop-color:rgb(40,125,192);stop-opacity: 1"></stop>
<stop offset="100%" style="stop-color:rgb(68,197,254);stop-opacity: 1"></stop>
</linearGradient>
<path transform=" translate(-1309.9408, -511.2741)" style="fill: url(#SVGID_492)" stroke-linecap="round" d="M 1144.14 517.891 C 1136.59 487.824 1130.59 448.548 1147.24 420.539 C 1156.29 405.071 1171.15 393.866 1188.52 389.419 C 1254.4 373.113 1287.18 443.608 1355.95 435.378 C 1341.4 430.748 1336.1 428.139 1322.89 420.367 C 1341.7 410.233 1360.07 400.428 1380.23 392.911 C 1416.99 379.205 1457.07 390.042 1475.48 426.372 C 1491.69 458.976 1478.77 502.636 1471.77 536.619 C 1471.71 536.817 1471.64 537.014 1471.57 537.211 C 1466.06 565.767 1454.47 610.398 1429.85 628.519 C 1412.46 641.321 1379.45 636.252 1368.01 617.185 C 1352.6 592.211 1361.89 558.45 1325.34 551.105 C 1308.22 568.167 1294.92 572.502 1272.18 561.66 C 1259.23 589.569 1260.08 630.427 1221.54 635.057 C 1172.4 640.961 1161.62 586.43 1151.38 550.599 C 1148.87 541.83 1144.9 527.03 1144.14 517.891 Z"></path>
</g>
<g transform="matrix(1 0 0 1.0004 1309.3415 567.5716)">
<linearGradient id="SVGID_493" gradientUnits="userSpaceOnUse" gradientTransform="matrix(1 0 0 1 0 0)" x1="1307.23" y1="634.404" x2="1309.23" y2="497.369">
<stop offset="0%" style="stop-color:rgb(11,43,126);stop-opacity: 1"></stop>
<stop offset="100%" style="stop-color:rgb(42,129,195);stop-opacity: 1"></stop>
</linearGradient>
<path transform=" translate(-1309.3415, -567.368)" style="fill: url(#SVGID_493)" stroke-linecap="round" d="M 1171.02 513.374 C 1172.05 510.536 1172.08 509.778 1171.35 506.851 C 1176.65 501.308 1221.85 500.863 1231.63 500.651 C 1278.03 499.727 1324.45 499.328 1370.86 499.452 C 1392.84 499.456 1424.02 498.143 1444.78 500.958 C 1444.43 504.479 1443.7 509.678 1444.16 513.032 L 1444 512.878 C 1446.06 512.289 1447.56 511.517 1449.38 510.408 C 1455.91 510.843 1468.56 511.359 1474.42 512.746 C 1475.55 519.746 1468.44 529.562 1471.57 537.211 C 1466.06 565.767 1454.47 610.398 1429.85 628.519 C 1412.46 641.321 1379.45 636.252 1368.01 617.185 C 1352.6 592.211 1361.89 558.45 1325.34 551.105 C 1308.22 568.167 1294.92 572.502 1272.18 561.66 C 1259.23 589.569 1260.08 630.427 1221.54 635.057 C 1172.4 640.961 1161.62 586.43 1151.38 550.599 C 1148.87 541.83 1144.9 527.03 1144.14 517.891 C 1144.96 515.155 1143.96 512.365 1146.38 510.493 C 1152.78 505.536 1156.87 508.161 1161.36 513.399 C 1167.75 527.326 1172.01 540.362 1180.38 553.369 C 1177.61 543.949 1170.84 522.532 1171.02 513.374 Z"></path>
</g>
<path transform="translate(0,0)" style="fill: rgb(14,45,130)" stroke-linecap="round" d="M1272.18 561.8591C1282.99 548.5278 1309.77 546.2859 1325.34 551.2999 1308.22 568.3687 1294.92 572.7055 1272.18 561.8591Z"></path>
<path transform="translate(0,0)" style="fill: rgb(162,211,241)" stroke-linecap="round" d="M1161.3601 513.5856C1151.7101 476.2637 1140.4601 419.1358 1192.0401 404.4519 1211.1101 399.0198 1230.1801 406.8689 1246.7401 416.5288 1226.1701 414.652 1205.7201 413.4205 1188.6101 427.5852 1167.1301 445.3663 1165.2801 488.5276 1171.0201 513.5606 1170.8401 522.7222 1177.6101 544.1478 1180.3801 553.5716 1172.0101 540.5594 1167.7501 527.5182 1161.3601 513.5856Z"></path>
<g transform="matrix(1 0 0 1.0004 241.0397 552.814)">
<linearGradient id="SVGID_494" gradientUnits="userSpaceOnUse" gradientTransform="matrix(1 0 0 1 0 0)" x1="239.51" y1="705.76" x2="238.224" y2="481.569">
<stop offset="0%" style="stop-color:rgb(10,37,123);stop-opacity: 1"></stop>
<stop offset="100%" style="stop-color:rgb(49,148,211);stop-opacity: 1"></stop>
</linearGradient>
<path transform=" translate(-241.0397, -552.6115)" style="fill: url(#SVGID_494)" stroke-linecap="round" d="M 105.654 397.995 L 200.258 398.033 C 252.238 398.027 322.431 392.649 351.805 445.779 C 358.051 457.077 362.965 470.365 364.61 483.204 C 367.422 496.019 366.883 513.206 364.801 526.121 C 359.186 560.954 337.09 586.98 304.477 599.546 L 349.879 666.711 C 358.591 679.648 368.754 693.92 376.638 707.105 L 295.035 706.998 C 289.669 700.473 284.322 692.443 279.701 685.305 C 264.021 661.079 246.448 637.342 231.376 612.769 L 177.366 612.855 C 178.504 636.878 178.428 683.062 177.536 707.269 C 153.867 707.256 129.546 707.503 105.92 707.17 L 105.748 587.909 C 105.749 576.312 104.919 538.298 105.986 528.517 C 105.271 513.521 105.845 493.724 105.813 478.416 C 105.611 451.61 105.558 424.802 105.654 397.995 Z M 177.46 552.934 C 209.752 552.375 263.38 560.327 285 532.676 C 294.092 521.048 294.152 501.398 289.687 487.704 C 274.149 453.745 236.283 461.901 205.69 460.963 C 201.256 460.827 179.831 459.801 177.372 461.56 L 176.982 466.504 L 177.46 552.934 Z"></path>
</g>
<g transform="matrix(1 0 0 1.0004 235.1088 463.3642)">
<linearGradient id="SVGID_495" gradientUnits="userSpaceOnUse" gradientTransform="matrix(1 0 0 1 0 0)" x1="234.54" y1="486.551" x2="232.818" y2="397.565">
<stop offset="0%" style="stop-color:rgb(51,151,215);stop-opacity: 1"></stop>
<stop offset="100%" style="stop-color:rgb(68,193,249);stop-opacity: 1"></stop>
</linearGradient>
<path transform=" translate(-235.1088, -463.1975)" style="fill: url(#SVGID_495)" stroke-linecap="round" d="M 105.654 397.995 L 200.258 398.033 C 252.238 398.027 322.431 392.649 351.805 445.779 C 358.051 457.077 362.965 470.365 364.61 483.204 L 363.386 485.35 C 358.622 480.003 295.286 483.378 289.687 487.704 C 274.149 453.745 236.283 461.901 205.69 460.963 C 201.256 460.827 179.831 459.801 177.372 461.56 L 176.982 466.504 C 175.581 472.112 175.901 477.888 175.929 483.678 L 175.934 483.634 C 164.092 481.977 119.133 483.719 109.366 489.885 C 105.47 495.842 108.824 516.796 105.986 528.517 C 105.271 513.521 105.845 493.724 105.813 478.416 C 105.611 451.61 105.558 424.802 105.654 397.995 Z"></path>
</g>
<g transform="matrix(1 0 0 1.0004 515.196 589.8985)">
<linearGradient id="SVGID_496" gradientUnits="userSpaceOnUse" gradientTransform="matrix(1 0 0 1 0 0)" x1="515.151" y1="712.041" x2="513.984" y2="489.628">
<stop offset="0%" style="stop-color:rgb(9,34,119);stop-opacity: 1"></stop>
<stop offset="100%" style="stop-color:rgb(51,151,215);stop-opacity: 1"></stop>
</linearGradient>
<path transform=" translate(-515.1961, -589.6844)" style="fill: url(#SVGID_496)" stroke-linecap="round" d="M 448.142 485.098 C 490.457 457.968 544.949 459.009 586.197 487.735 C 631.099 519.007 650.255 575.975 633.369 628.023 C 616.483 680.072 567.532 714.944 512.823 713.898 C 458.114 712.853 410.53 676.136 395.645 623.481 C 380.76 570.826 402.078 514.631 448.142 485.098 Z M 523.479 647.281 C 555.608 642.544 577.729 612.542 572.755 580.448 C 567.78 548.355 537.615 526.457 505.559 531.669 C 473.837 536.826 452.216 566.609 457.139 598.369 C 462.062 630.128 491.684 651.968 523.479 647.281 Z"></path>
</g>
<path transform="translate(0,0)" style="fill: rgb(59,171,231)" stroke-linecap="round" d="M448.1419 485.2703C490.4569 458.1294 544.9489 459.1709 586.1969 487.9084 585.7649 488.2105 585.3339 488.5136 584.9019 488.8157 576.7409 492.6603 561.3159 490.0592 552.0459 490.5224 540.1519 490.0992 525.5699 492.6943 513.8949 491.6849 493.0339 489.8801 465.0209 493.0094 445.3639 490.1673 444.6419 487.132 446.1639 490.8205 448.1419 485.2703Z"></path>
<g transform="matrix(1 0 0 1.0004 787.6139 589.8521)">
<linearGradient id="SVGID_497" gradientUnits="userSpaceOnUse" gradientTransform="matrix(1 0 0 1 0 0)" x1="787.505" y1="712.022" x2="786.592" y2="488.72">
<stop offset="0%" style="stop-color:rgb(9,34,119);stop-opacity: 1"></stop>
<stop offset="100%" style="stop-color:rgb(51,151,215);stop-opacity: 1"></stop>
</linearGradient>
<path transform=" translate(-787.6139, -589.6379)" style="fill: url(#SVGID_497)" stroke-linecap="round" d="M 719.896 485.812 C 759.905 459.717 811.348 458.933 852.134 483.795 C 899.272 512.53 921.726 568.973 907.209 622.235 C 892.692 675.497 844.702 712.74 789.504 713.581 C 734.305 714.423 685.202 678.661 669.068 625.866 C 652.934 573.071 673.657 515.97 719.896 485.812 Z M 789.49 647.786 C 821.749 646.723 847.034 619.702 845.957 587.443 C 844.88 555.184 817.848 529.91 785.59 531.001 C 753.351 532.092 728.096 559.103 729.172 591.343 C 730.249 623.582 757.25 648.849 789.49 647.786 Z"></path>
</g>
<path transform="translate(0,0)" style="fill: rgb(59,171,231)" stroke-linecap="round" d="M719.896 485.9846C759.905 459.8792 811.348 459.0948 852.134 483.9668L852.567 484.6381C853.69 486.3487 854.028 487.3141 855.904 488.0124L856.584 489.0938C841.602 492.3581 732.139 492.8894 720.632 488.3846L719.896 485.9846Z"></path>
<g transform="matrix(1 0 0 1.0004 1004.7945 559.2911)">
<linearGradient id="SVGID_498" gradientUnits="userSpaceOnUse" gradientTransform="matrix(1 0 0 1 0 0)" x1="1003.43" y1="707.767" x2="1005.51" y2="480.293">
<stop offset="0%" style="stop-color:rgb(10,36,121);stop-opacity: 1"></stop>
<stop offset="100%" style="stop-color:rgb(50,149,213);stop-opacity: 1"></stop>
</linearGradient>
<path transform=" translate(-1004.7945, -559.0864)" style="fill: url(#SVGID_498)" stroke-linecap="round" d="M 958.903 410.287 C 984.311 407.675 1003.74 406.573 1029.32 410.435 C 1029.31 430.537 1028.74 453.659 1029.48 473.516 C 1048.63 473.355 1068.08 473.076 1087.21 473.19 C 1087.29 478.393 1087.75 490.356 1087.14 494.981 C 1088.18 504.658 1087.63 520.919 1087.55 530.997 C 1068.03 530.675 1048.51 530.568 1028.99 530.675 C 1028.98 553.935 1028.94 577.106 1028.97 600.455 C 1029 616.362 1028.24 640.336 1045.47 648.334 C 1058.84 654.535 1074.63 647.819 1087.4 642.949 L 1087.75 700.451 C 1053.04 711.734 1009.07 718.667 980.187 690.151 C 955.166 665.45 958.849 625.157 958.847 592.843 L 958.769 530.959 L 922.062 530.999 C 921.987 512.466 921.502 492.054 922.173 473.67 C 933.147 473.539 948.252 472.913 958.911 473.59 L 958.903 410.287 Z"></path>
</g>
<g transform="matrix(1 0 0 1.0004 1004.8122 451.6122)">
<linearGradient id="SVGID_499" gradientUnits="userSpaceOnUse" gradientTransform="matrix(1 0 0 1 0 0)" x1="1004.16" y1="485.185" x2="1002.79" y2="409.464">
<stop offset="0%" style="stop-color:rgb(51,150,214);stop-opacity: 1"></stop>
<stop offset="100%" style="stop-color:rgb(67,190,248);stop-opacity: 1"></stop>
</linearGradient>
<path transform=" translate(-1004.8122, -451.4506)" style="fill: url(#SVGID_499)" stroke-linecap="round" d="M 958.903 410.287 C 984.311 407.675 1003.74 406.573 1029.32 410.435 C 1029.31 430.537 1028.74 453.659 1029.48 473.516 C 1048.63 473.355 1068.08 473.076 1087.21 473.19 C 1087.29 478.393 1087.75 490.356 1087.14 494.981 C 1083.26 489.871 1088.09 486.7 1083.22 481.752 C 1059.87 486.259 1058.7 483.892 1035.84 484.06 C 1011.96 484.235 987.329 485.161 963.243 484.475 C 959.197 484.359 949.077 480.225 946.557 480.44 C 940.033 480.996 932.572 482.716 925.607 483.337 C 923.987 480.132 923.201 477.099 922.173 473.67 C 933.147 473.539 948.252 472.913 958.911 473.59 L 958.903 410.287 Z"></path>
</g>
<g transform="matrix(1 0 0 1.0004 1310.0461 636.4848)">
<linearGradient id="SVGID_500" gradientUnits="userSpaceOnUse" gradientTransform="matrix(1 0 0 1 0 0)" x1="1307.78" y1="731.143" x2="1310.06" y2="543.174">
<stop offset="0%" style="stop-color:rgb(14,38,124);stop-opacity: 1"></stop>
<stop offset="100%" style="stop-color:rgb(20,90,161);stop-opacity: 1"></stop>
</linearGradient>
<path transform=" translate(-1310.0461, -636.2553)" style="fill: url(#SVGID_500)" stroke-linecap="round" d="M 1546.57 539.812 L 1547.32 540.678 C 1547.46 549.019 1540.94 566.44 1537.81 574.349 C 1513.01 637.263 1464.19 687.72 1402.12 714.581 C 1344.69 739.016 1279.96 739.89 1221.89 717.013 C 1160.21 691.622 1111.13 642.805 1085.4 581.271 C 1079.21 566.121 1076.47 554.709 1072.77 538.95 C 1099.56 583.383 1137.94 624.975 1183.24 650.683 C 1242.1 684.531 1312.09 693.33 1377.5 675.106 C 1446.55 655.994 1511.47 601.882 1546.57 539.812 Z"></path>
</g>
<g transform="matrix(1 0 0 1.0004 1259.715 300.3485)">
<linearGradient id="SVGID_501" gradientUnits="userSpaceOnUse" gradientTransform="matrix(1 0 0 1 0 0)" x1="1403.68" y1="305.107" x2="1160.93" y2="291.284">
<stop offset="0%" style="stop-color:rgb(23,76,148);stop-opacity: 1"></stop>
<stop offset="100%" style="stop-color:rgb(70,194,250);stop-opacity: 1"></stop>
</linearGradient>
<path transform=" translate(-1259.715, -300.24)" style="fill: url(#SVGID_501)" stroke-linecap="round" d="M 1313.53 248.478 C 1345.59 258.622 1381.55 267.958 1412.8 278.771 C 1408.66 281.421 1405.2 276.646 1404.92 279.886 C 1403.91 291.595 1400.06 316.707 1402.37 326.946 C 1406.48 328.464 1406.48 325.564 1412.3 327.412 C 1381.16 336.013 1346.14 344.227 1314.63 352.002 L 1205.85 319.226 L 1201.14 331.211 C 1193.36 328.836 1174.28 323.377 1167.4 320.302 C 1156.76 318.392 1119.31 306.089 1106.63 302.223 C 1124.92 297.615 1143.16 292.799 1161.34 287.777 C 1212.15 274.991 1262.88 261.891 1313.53 248.478 Z"></path>
</g>
<path transform="translate(0,0)" style="fill: rgb(59,171,231)" stroke-linecap="round" d="M1106.63 302.3305C1124.92 297.7206 1143.16 292.9027 1161.34 287.8787 1161.54 292.8007 1161.47 291.7763 1163.93 295.6428 1164.34 296.2881 1162.94 306.0189 1162.71 307.0304 1160.87 315.0586 1161.32 316.4881 1167.4 320.4167 1156.76 318.5059 1119.31 306.198 1106.63 302.3305Z"></path>
<g transform="matrix(1 0 0 1.0004 1313.47 373.527)">
<linearGradient id="SVGID_502" gradientUnits="userSpaceOnUse" gradientTransform="matrix(1 0 0 1 0 0)" x1="1427.4" y1="385.388" x2="1213.29" y2="348.905">
<stop offset="0%" style="stop-color:rgb(5,19,109);stop-opacity: 1"></stop>
<stop offset="100%" style="stop-color:rgb(46,136,196);stop-opacity: 1"></stop>
</linearGradient>
<path transform=" translate(-1313.47, -373.393)" style="fill: url(#SVGID_502)" stroke-linecap="round" d="M 1194.03 378.925 C 1196.36 370.695 1207.4 336.167 1210.91 328.895 L 1212.03 328.914 C 1222.07 330.988 1239.08 336.657 1249.56 339.84 C 1271.1 346.262 1292.57 352.914 1313.97 359.794 C 1348.11 350.183 1384.57 343.163 1418.13 332.69 C 1423.26 348.458 1428.19 364.292 1432.91 380.186 C 1386.34 374.252 1352.57 394.925 1313.42 417.891 C 1289.6 404.326 1264.99 390.155 1238.21 383.198 C 1234.81 382.314 1223.83 380.53 1221.31 379.382 C 1212.23 378.565 1203.15 378.823 1194.03 378.925 Z"></path>
</g>
<path transform="translate(0,0)" style="fill: rgb(59,171,231)" stroke-linecap="round" d="M1194.03 379.0612C1196.36 370.8279 1207.4 336.2861 1210.91 329.0112L1212.03 329.0302C1222.53 337.4486 1219.95 364.4174 1219.79 377.6126 1221.47 377.7927 1223.13 377.6076 1224.02 378.533 1223.11 378.8521 1222.21 379.1813 1221.31 379.5184 1212.23 378.7011 1203.15 378.9592 1194.03 379.0612Z"></path>
<path transform="translate(0,0)" style="fill: rgb(59,171,231)" stroke-linecap="round" d="M1498.83 396.5972C1550.43 395.9459 1602.52 396.8643 1654.23 396.5661 1654.08 415.0675 1654.07 433.5689 1654.21 452.0703L1559.6 451.9603C1543.94 451.9343 1524.62 451.3601 1509.22 452.0303 1506.09 441.6442 1502.09 426.5351 1496.26 417.8216L1495.32 416.5431C1495.06 411.25 1494.41 402.0934 1496.2 397.4015L1498.83 396.5972Z"></path>
<path transform="translate(0,0)" style="fill: rgb(14,45,130)" stroke-linecap="round" d="M1517.36 655.2475C1532 654.6573 1549.35 655.1365 1564.32 655.1415L1654.15 655.1805C1654 672.5094 1654.21 690.0364 1654.29 707.3814L1595.75 707.5835C1566.98 708.4538 1537.14 707.5264 1508.31 707.6935 1492.36 707.7865 1477.26 706.9032 1461.28 708.3718 1485.25 690.9528 1499.05 678.7759 1517.36 655.2475Z"></path>
<g transform="matrix(1 0 0 1.0004 1450.2369 348.4103)">
<linearGradient id="SVGID_503" gradientUnits="userSpaceOnUse" gradientTransform="matrix(1 0 0 1 0 0)" x1="1491.33" y1="322.103" x2="1421.12" y2="361.275">
<stop offset="0%" style="stop-color:rgb(10,38,121);stop-opacity: 1"></stop>
<stop offset="100%" style="stop-color:rgb(26,79,151);stop-opacity: 1"></stop>
</linearGradient>
<path transform=" translate(-1450.2369, -348.284)" style="fill: url(#SVGID_503)" stroke-linecap="round" d="M 1412.3 327.412 C 1406.48 325.564 1406.48 328.464 1402.37 326.946 C 1400.06 316.707 1403.91 291.595 1404.92 279.886 C 1405.2 276.646 1408.66 281.421 1412.8 278.771 C 1422.83 281.794 1433.36 284.665 1443.03 288.721 C 1450.84 291.993 1465.58 305.147 1472.92 305.497 C 1471.37 296.984 1457.56 293.363 1456.73 289.201 C 1465.15 286.925 1476.2 297.974 1482.03 298.351 C 1479.82 306.866 1487.94 313.497 1487.55 321.699 L 1487.48 356.595 C 1504.04 367.924 1490.91 391.068 1497.46 396.394 L 1498.83 396.457 L 1496.2 397.261 C 1494.41 401.951 1495.06 411.104 1495.32 416.395 L 1496.26 417.673 C 1491.13 418.184 1484.68 417.467 1479.28 417.516 L 1476.3 417.533 C 1474.38 417.55 1474.38 417.671 1472.74 416.529 C 1469.91 407.696 1470.27 378.514 1471.37 368.243 C 1472.05 361.838 1474.68 359.977 1479.43 356.425 C 1479.2 345.574 1479.2 334.72 1479.42 323.869 C 1464.2 328.202 1443.23 333.571 1427.89 336.876 L 1423.44 324.728 L 1412.3 327.412 Z"></path>
</g>
<path transform="translate(0,0)" style="fill: rgb(89,118,180)" stroke-linecap="round" d="M1476.3 417.6814C1476.58 412.7104 1476.85 402.1502 1478.35 398.1176 1479.36 405.3045 1479.28 410.4265 1479.28 417.6644L1476.3 417.6814Z"></path>
<g transform="matrix(1 0 0 1.0004 1600.775 552.1164)">
<linearGradient id="SVGID_504" gradientUnits="userSpaceOnUse" gradientTransform="matrix(1 0 0 1 0 0)" x1="1601.75" y1="577.553" x2="1599.31" y2="526.829">
<stop offset="0%" style="stop-color:rgb(31,98,172);stop-opacity: 1"></stop>
<stop offset="100%" style="stop-color:rgb(39,123,192);stop-opacity: 1"></stop>
</linearGradient>
<path transform=" translate(-1600.775, -551.9201)" style="fill: url(#SVGID_504)" stroke-linecap="round" d="M 1574.2 526.078 C 1595.43 525.53 1618.56 526.012 1639.93 526.035 C 1640.31 542.89 1639.97 561.062 1639.97 578.023 L 1630.25 577.997 L 1561.44 578.001 C 1565.92 560.937 1570.02 543.256 1574.2 526.078 Z"></path>
</g>
<path transform="translate(0,0)" style="fill: rgb(14,45,130)" stroke-linecap="round" d="M1482.0299 298.4564C1497.4699 301.9328 1513.5199 308.5285 1527.7899 311.8318 1514.6999 315.0831 1500.6099 318.8866 1487.5499 321.8138 1487.9399 313.6085 1479.8199 306.9748 1482.0299 298.4564Z"></path>
</svg>