<?xml version="1.0" encoding="UTF-8" standalone="no"?>
<!-- Generated by SVGMaker - https://svgmaker.io -->
<!-- Prompt: image has been manually edited -->
<!-- Quality: medium -->
<!-- Type: crafted -->
<!-- Created: 2026-01-08T07:21:33.275Z -->
<svg xmlns="http://www.w3.org/2000/svg" xmlns:xlink="http://www.w3.org/1999/xlink" version="1.1" width="1392" height="752" viewBox="0 0 2048 1106">
<desc>Created with SVGMaker Editor 2.2.3</desc>
<defs>
</defs>
<path transform="translate(0,0)" style="stroke: rgb(0,102,255); stroke-opacity: 0; stroke-linecap: round; fill: rgb(51,185,242)" vector-effect="non-scaling-stroke" stroke-linecap="round" d="M1144.14 520.2506C1136.59 490.1716 1130.59 450.8799 1147.24 422.8597 1156.29 407.3855 1171.15 396.176 1188.52 391.7273 1254.4 375.4147 1287.18 445.9379 1355.95 437.7046 1341.4 433.0728 1336.1 430.4627 1322.89 422.6876 1341.7 412.5496 1360.07 402.7407 1380.23 395.2207 1416.99 381.5092 1457.07 392.3505 1475.48 428.695 1491.69 461.3121 1478.77 504.9895 1471.77 538.9861 1471.71 539.1842 1471.64 539.3813 1471.57 539.5784 1466.06 568.1458 1454.47 612.7946 1429.85 630.9229 1412.46 643.73 1379.45 638.659 1368.01 619.5844 1352.6 594.6004 1361.89 560.8259 1325.34 553.4779 1308.22 570.5468 1294.92 574.8835 1272.18 564.0372 1259.23 591.9573 1260.08 632.8317 1221.54 637.4635 1172.4 643.3699 1161.62 588.8171 1151.38 552.9717 1148.87 544.1992 1144.9 529.3933 1144.14 520.2506Z"></path>
<path transform="translate(0,0)" style="stroke-linecap: round; fill: rgb(51,185,242)" stroke-linecap="round" d="M1272.18 562.0545C1282.99 548.7232 1309.77 546.4813 1325.34 551.4953 1308.22 568.5641 1294.92 572.9009 1272.18 562.0545Z"></path>
<path transform="translate(0,0)" style="stroke-linecap: round; fill: rgb(51,185,242)" stroke-linecap="round" d="M1161.3602 513.781C1151.7102 476.4591 1140.4602 419.3312 1192.0402 404.6473 1211.1102 399.2152 1230.1802 407.0643 1246.7402 416.7242 1226.1702 414.8474 1205.7202 413.6159 1188.6102 427.7806 1167.1302 445.5617 1165.2802 488.723 1171.0202 513.756 1170.8402 522.9176 1177.6102 544.3432 1180.3802 553.767 1172.0102 540.7548 1167.7502 527.7136 1161.3602 513.781Z"></path>
<path transform="translate(0,0)" style="stroke: rgb(0,102,255); stroke-opacity: 0; stroke-linecap: round; fill: rgb(51,185,242)" vector-effect="non-scaling-stroke" stroke-linecap="round" d="M1546.57 540.1982L1547.32 541.0646C1547.46 549.4089 1540.94 566.8369 1537.81 574.749 1513.01 637.6882 1464.19 688.1654 1402.12 715.0371 1344.69 739.4819 1279.96 740.3563 1221.89 717.4701 1160.21 692.0689 1111.13 643.2324 1085.4 581.6738 1079.21 566.5177 1076.47 555.1012 1072.77 539.3359 1099.56 583.7867 1137.94 625.3953 1183.24 651.1136 1242.1 684.9751 1312.09 693.7776 1377.5 675.5463 1446.55 656.4267 1511.47 602.2931 1546.57 540.1982Z"></path>
<path transform="translate(0,0)" style="stroke-linecap: round; fill: rgb(51,185,242)" stroke-linecap="round" d="M1313.53 248.7612C1345.59 258.9093 1381.55 268.249 1412.8 279.0663 1408.66 281.7174 1405.2 276.9405 1404.92 280.1818 1403.91 291.8954 1400.06 317.0175 1402.37 327.2606 1406.48 328.7792 1406.48 325.878 1412.3 327.7268 1381.16 336.3312 1346.14 344.5485 1314.63 352.3266L1205.85 319.5375 1201.14 331.5273C1193.36 329.1513 1174.28 323.6902 1167.4 320.6139 1156.76 318.7032 1119.31 306.3952 1106.63 302.5277 1124.92 297.9178 1143.16 293.0999 1161.34 288.0759 1212.15 275.2848 1262.88 262.1796 1313.53 248.7612Z"></path>
<path transform="translate(0,0)" style="stroke-linecap: round; fill: rgb(51,185,242)" stroke-linecap="round" d="M1106.63 302.5259C1124.92 297.916 1143.16 293.0981 1161.34 288.0741 1161.54 292.9961 1161.47 291.9717 1163.93 295.8382 1164.34 296.4835 1162.94 306.2143 1162.71 307.2258 1160.87 315.254 1161.32 316.6835 1167.4 320.6121 1156.76 318.7013 1119.31 306.3934 1106.63 302.5259Z"></path>
<path transform="translate(0,0)" style="stroke-linecap: round; fill: rgb(51,185,242)" stroke-linecap="round" d="M1194.03 379.2566C1196.36 371.0233 1207.4 336.4815 1210.91 329.2066L1212.03 329.2256C1222.07 331.3004 1239.08 336.9717 1249.56 340.156 1271.1 346.5805 1292.57 353.2352 1313.97 360.118 1348.11 350.5031 1384.57 343.4803 1418.13 333.0031 1423.26 348.7774 1428.19 364.6178 1432.91 380.5181 1386.34 374.5817 1352.57 395.263 1313.42 418.2382 1289.6 404.6678 1264.99 390.4911 1238.21 383.5313 1234.81 382.647 1223.83 380.8623 1221.31 379.7138 1212.23 378.8965 1203.15 379.1546 1194.03 379.2566Z"></path>
<path transform="translate(0,0)" style="stroke-linecap: round; fill: rgb(51,185,242)" stroke-linecap="round" d="M1194.03 379.2566C1196.36 371.0233 1207.4 336.4815 1210.91 329.2066L1212.03 329.2256C1222.53 337.644 1219.95 364.6128 1219.79 377.808 1221.47 377.9881 1223.13 377.803 1224.02 378.7284 1223.11 379.0475 1222.21 379.3767 1221.31 379.7138 1212.23 378.8965 1203.15 379.1546 1194.03 379.2566Z"></path>
<path transform="translate(0,0)" style="stroke-linecap: round; fill: rgb(51,185,242)" stroke-linecap="round" d="M1412.3 327.7254C1406.48 325.8766 1406.48 328.7778 1402.37 327.2592 1400.06 317.0161 1403.91 291.894 1404.92 280.1803 1405.2 276.939 1408.66 281.716 1412.8 279.0649 1422.83 282.0891 1433.36 284.9613 1443.03 289.0189 1450.84 292.2922 1465.58 305.4514 1472.92 305.8016 1471.37 297.2852 1457.56 293.6627 1456.73 289.4991 1465.15 287.2222 1476.2 298.2756 1482.03 298.6527 1479.82 307.1711 1487.94 313.8048 1487.55 322.0101L1487.48 356.92C1504.04 368.2536 1490.91 391.4068 1497.46 396.7349L1498.83 396.798 1496.2 397.6023C1494.41 402.2942 1495.06 411.4508 1495.32 416.7439L1496.26 418.0225C1491.13 418.5337 1484.68 417.8164 1479.28 417.8654L1476.3 417.8824C1474.38 417.8994 1474.38 418.0205 1472.74 416.878 1469.91 408.0415 1470.27 378.8478 1471.37 368.5727 1472.05 362.1651 1474.68 360.3034 1479.43 356.75 1479.2 345.8946 1479.2 335.0363 1479.42 324.1809 1464.2 328.5157 1443.23 333.8868 1427.89 337.1931L1423.44 325.0403 1412.3 327.7254Z"></path>
<path transform="translate(0,0)" style="stroke-linecap: round; fill: rgb(51,185,242)" stroke-linecap="round" d="M1476.3 417.8768C1476.58 412.9058 1476.85 402.3456 1478.35 398.313 1479.36 405.4999 1479.28 410.6219 1479.28 417.8598L1476.3 417.8768Z"></path>
<path transform="translate(0,0)" style="stroke-linecap: round; fill: rgb(51,185,242)" stroke-linecap="round" d="M1482.0298 298.6518C1497.4698 302.1282 1513.5198 308.7239 1527.7898 312.0272 1514.6998 315.2785 1500.6098 319.082 1487.5498 322.0092 1487.9398 313.8039 1479.8198 307.1702 1482.0298 298.6518Z"></path>
</svg>