<?xml version="1.0" encoding="UTF-8" standalone="no"?>
<!-- Generated by SVGMaker - https://svgmaker.io -->
<!-- Prompt: image has been manually edited -->
<!-- Quality: medium -->
<!-- Type: crafted -->
<!-- Created: 2026-01-08T07:20:12.407Z -->
<svg xmlns="http://www.w3.org/2000/svg" xmlns:xlink="http://www.w3.org/1999/xlink" version="1.1" width="1392" height="752" viewBox="0 0 2048 1106">
<desc>Created with SVGMaker Editor 2.2.3</desc>
<defs>
</defs>
<path transform="translate(0,0)" style="stroke-linecap: round; fill: rgb(51,185,242)" stroke-linecap="round" d="M1692.0098 397.4157C1706.8798 396.7954 1725.4498 397.1086 1740.6798 397.1606 1782.6598 397.3016 1834.0498 395.9751 1871.5698 416.8194 1897.9998 431.4933 1919.4498 458.3561 1927.6798 487.4617 1943.2998 523.6452 1940.0198 587.6838 1925.8898 624.4145 1887.3998 724.4765 1779.7598 708.276 1691.9098 707.6267L1691.9698 581.8614C1691.9898 561.8634 1691.3098 536.4503 1692.1598 516.7474 1691.1898 477.9929 1691.9798 436.3823 1692.0098 397.4157ZM1750.0998 472.8959C1751.6698 524.3825 1749.3998 576.7004 1750.3598 628.273 1750.5498 637.9409 1750.2398 647.6657 1750.7298 657.3266 1784.3198 657.2586 1823.5198 660.4098 1848.7298 634.1563 1881.8298 599.6906 1882.6798 548.7632 1870.4198 505.5869 1845.6498 444.9827 1806.4498 449.2294 1750.3498 449.2874 1750.8498 455.1518 1750.3898 466.8324 1750.0998 472.8959Z"></path>
<path transform="translate(0,0)" style="stroke-linecap: round; fill: rgb(51,185,242)" stroke-linecap="round" d="M1692.0098 397.4157C1706.8798 396.7955 1725.4498 397.1086 1740.6798 397.1606 1782.6598 397.3017 1834.0498 395.9752 1871.5698 416.8195 1897.9998 431.4934 1919.4498 458.3561 1927.6798 487.4617 1926.3498 485.8941 1923.8398 482.8359 1921.8698 482.4377 1902.5498 478.5512 1881.8998 480.549 1863.0098 485.0418 1866.0098 490.683 1872.0098 499.6766 1870.4198 505.587 1845.6498 444.9828 1806.4498 449.2295 1750.3498 449.2875 1750.8498 455.1518 1750.3898 466.8325 1750.0998 472.8959 1749.4598 475.3129 1748.8298 477.6428 1748.3098 480.0928 1737.8398 480.0448 1702.0298 481.7475 1694.0898 486.2182 1694.2198 497.4968 1694.5498 513.2451 1694.2098 524.2815L1693.5798 524.6496C1693.0998 522.0466 1692.9798 519.0024 1692.1598 516.7475 1691.1898 477.993 1691.9798 436.3823 1692.0098 397.4157Z"></path>
<path transform="translate(0,0)" style="stroke: rgb(0,102,255); stroke-opacity: 0; stroke-linecap: round; fill: rgb(51,185,242)" vector-effect="non-scaling-stroke" stroke-linecap="round" d="M1144.14 520.2506C1136.59 490.1716 1130.59 450.8799 1147.24 422.8597 1156.29 407.3855 1171.15 396.176 1188.52 391.7273 1254.4 375.4147 1287.18 445.9379 1355.95 437.7046 1341.4 433.0728 1336.1 430.4627 1322.89 422.6876 1341.7 412.5496 1360.07 402.7407 1380.23 395.2207 1416.99 381.5092 1457.07 392.3505 1475.48 428.695 1491.69 461.3121 1478.77 504.9895 1471.77 538.9861 1471.71 539.1842 1471.64 539.3813 1471.57 539.5784 1466.06 568.1458 1454.47 612.7946 1429.85 630.9229 1412.46 643.73 1379.45 638.659 1368.01 619.5844 1352.6 594.6004 1361.89 560.8259 1325.34 553.4779 1308.22 570.5468 1294.92 574.8835 1272.18 564.0372 1259.23 591.9573 1260.08 632.8317 1221.54 637.4635 1172.4 643.3699 1161.62 588.8171 1151.38 552.9717 1148.87 544.1992 1144.9 529.3933 1144.14 520.2506Z"></path>
<path transform="translate(0,0)" style="stroke-linecap: round; fill: rgb(51,185,242)" stroke-linecap="round" d="M1272.18 562.0545C1282.99 548.7232 1309.77 546.4813 1325.34 551.4953 1308.22 568.5641 1294.92 572.9009 1272.18 562.0545Z"></path>
<path transform="translate(0,0)" style="stroke-linecap: round; fill: rgb(51,185,242)" stroke-linecap="round" d="M1161.3602 513.781C1151.7102 476.4591 1140.4602 419.3312 1192.0402 404.6473 1211.1102 399.2152 1230.1802 407.0643 1246.7402 416.7242 1226.1702 414.8474 1205.7202 413.6159 1188.6102 427.7806 1167.1302 445.5617 1165.2802 488.723 1171.0202 513.756 1170.8402 522.9176 1177.6102 544.3432 1180.3802 553.767 1172.0102 540.7548 1167.7502 527.7136 1161.3602 513.781Z"></path>
<path transform="translate(0,0)" style="stroke-linecap: round; fill: rgb(51,185,242)" stroke-linecap="round" d="M105.654 398.3311L200.258 398.3691C252.238 398.3631 322.431 392.9829 351.805 446.1342 358.051 457.4367 362.965 470.73 364.61 483.5741 367.422 496.3943 366.883 513.5881 364.801 526.5083 359.186 561.3552 337.09 587.3916 304.477 599.9627L349.879 667.1545C358.591 680.0967 368.754 694.3744 376.638 707.5647L295.035 707.4577C289.669 700.93 284.322 692.8968 279.701 685.756 264.021 661.5203 246.448 637.7738 231.376 613.191L177.366 613.277C178.504 637.3096 178.428 683.5121 177.536 707.7288 153.867 707.7158 129.546 707.9629 105.92 707.6297L105.748 588.321C105.749 576.7194 104.919 538.6902 105.986 528.9053 105.271 513.9033 105.845 494.0983 105.813 478.7842 105.611 451.9675 105.558 425.1488 105.654 398.3311ZM177.46 553.332C209.752 552.7728 263.38 560.728 285 533.0659 294.092 521.4333 294.152 501.7754 289.687 488.0759 274.149 454.1034 236.283 462.2626 205.69 461.3242 201.256 461.1882 179.831 460.1618 177.372 461.9215L176.982 466.8675 177.46 553.332Z"></path>
<path transform="translate(0,0)" style="stroke-linecap: round; fill: rgb(51,185,242)" stroke-linecap="round" d="M105.654 398.331L200.258 398.369C252.238 398.363 322.431 392.9829 351.805 446.1341 358.051 457.4367 362.965 470.73 364.61 483.5741L363.386 485.721C358.622 480.3718 295.286 483.7482 289.687 488.0759 274.149 454.1033 236.283 462.2626 205.69 461.3242 201.256 461.1882 179.831 460.1617 177.372 461.9214L176.982 466.8674C175.581 472.4777 175.901 478.256 175.929 484.0483L175.934 484.0043C164.092 482.3466 119.133 484.0893 109.366 490.2578 105.47 496.2172 108.824 517.1795 105.986 528.9052 105.271 513.9032 105.845 494.0983 105.813 478.7842 105.611 451.9675 105.558 425.1487 105.654 398.331Z"></path>
<path transform="translate(0,0)" style="stroke-linecap: round; fill: rgb(51,185,242)" stroke-linecap="round" d="M448.1418 485.4656C490.4568 458.3247 544.9488 459.3661 586.1968 488.1036 631.0988 519.3881 650.2548 576.3789 633.3688 628.4477 616.4828 680.5176 567.5318 715.4035 512.8228 714.3571 458.1138 713.3117 410.5298 676.58 395.6448 623.9039 380.7598 571.2279 402.0778 515.0104 448.1418 485.4656ZM523.4788 647.7134C555.6078 642.9745 577.7288 612.9605 572.7548 580.8537 567.7798 548.7479 537.6148 526.8411 505.5588 532.0552 473.8368 537.2143 452.2158 567.0092 457.1388 598.7819 462.0618 630.5536 491.6838 652.4023 523.4788 647.7134Z"></path>
<path transform="translate(0,0)" style="stroke-linecap: round; fill: rgb(51,185,242)" stroke-linecap="round" d="M448.1418 485.4656C490.4568 458.3247 544.9488 459.3662 586.1968 488.1037 585.7648 488.4058 585.3338 488.7089 584.9018 489.011 576.7408 492.8556 561.3158 490.2545 552.0458 490.7177 540.1518 490.2945 525.5698 492.8896 513.8948 491.8802 493.0338 490.0754 465.0208 493.2047 445.3638 490.3626 444.6418 487.3273 446.1638 491.0158 448.1418 485.4656Z"></path>
<path transform="translate(0,0)" style="stroke-linecap: round; fill: rgb(51,185,242)" stroke-linecap="round" d="M719.896 486.1801C759.905 460.0746 811.348 459.2903 852.134 484.1623 899.272 512.9088 921.726 569.3743 907.209 622.6576 892.692 675.9409 844.702 713.1988 789.504 714.0402 734.305 714.8825 685.202 679.1062 669.068 626.2901 652.934 573.474 673.657 516.3501 719.896 486.1801ZM789.49 648.2189C821.749 647.1554 847.034 620.1236 845.957 587.8517 844.88 555.5798 817.848 530.2957 785.59 531.3871 753.351 532.4786 728.096 559.5004 729.172 591.7533 730.249 624.0052 757.25 649.2823 789.49 648.2189Z"></path>
<path transform="translate(0,0)" style="stroke-linecap: round; fill: rgb(51,185,242)" stroke-linecap="round" d="M719.896 486.1799C759.905 460.0745 811.348 459.2901 852.134 484.1621L852.567 484.8334C853.69 486.544 854.028 487.5094 855.904 488.2077L856.584 489.2891C841.602 492.5534 732.139 493.0847 720.632 488.5799L719.896 486.1799Z"></path>
<path transform="translate(0,0)" style="stroke-linecap: round; fill: rgb(51,185,242)" stroke-linecap="round" d="M958.903 410.6277C984.311 408.0146 1003.74 406.9122 1029.32 410.7757 1029.31 430.8858 1028.74 454.017 1029.48 473.882 1048.63 473.7209 1068.08 473.4418 1087.21 473.5558 1087.29 478.7609 1087.75 490.7287 1087.14 495.3556 1088.18 505.0364 1087.63 521.3039 1087.55 531.386 1068.03 531.0638 1048.51 530.9568 1028.99 531.0638 1028.98 554.3331 1028.94 577.5134 1028.97 600.8717 1029 616.7851 1028.24 640.7687 1045.47 648.7699 1058.84 654.9734 1074.63 648.2547 1087.4 643.3827L1087.75 700.9077C1053.04 712.1953 1009.07 719.131 980.187 690.6036 955.166 665.8927 958.849 625.5836 958.847 593.2567L958.769 531.3479 922.062 531.388C921.987 512.8476 921.502 492.4274 922.173 474.036 933.147 473.905 948.252 473.2787 958.911 473.956L958.903 410.6277Z"></path>
<path transform="translate(0,0)" style="stroke-linecap: round; fill: rgb(51,185,242)" stroke-linecap="round" d="M958.903 410.6275C984.311 408.0145 1003.74 406.912 1029.32 410.7756 1029.31 430.8856 1028.74 454.0169 1029.48 473.8818 1048.63 473.7208 1068.08 473.4417 1087.21 473.5557 1087.29 478.7608 1087.75 490.7286 1087.14 495.3554 1083.26 490.2434 1088.09 487.0711 1083.22 482.1211 1059.87 486.6299 1058.7 484.262 1035.84 484.43 1011.96 484.6051 987.329 485.5315 963.243 484.8452 959.197 484.7292 949.077 480.5935 946.557 480.8086 940.033 481.3648 932.572 483.0855 925.607 483.7068 923.987 480.5005 923.201 477.4663 922.173 474.0359 933.147 473.9048 948.252 473.2786 958.911 473.9559L958.903 410.6275Z"></path>
<path transform="translate(0,0)" style="stroke: rgb(0,102,255); stroke-opacity: 0; stroke-linecap: round; fill: rgb(51,185,242)" vector-effect="non-scaling-stroke" stroke-linecap="round" d="M1546.57 540.1982L1547.32 541.0646C1547.46 549.4089 1540.94 566.8369 1537.81 574.749 1513.01 637.6882 1464.19 688.1654 1402.12 715.0371 1344.69 739.4819 1279.96 740.3563 1221.89 717.4701 1160.21 692.0689 1111.13 643.2324 1085.4 581.6738 1079.21 566.5177 1076.47 555.1012 1072.77 539.3359 1099.56 583.7867 1137.94 625.3953 1183.24 651.1136 1242.1 684.9751 1312.09 693.7776 1377.5 675.5463 1446.55 656.4267 1511.47 602.2931 1546.57 540.1982Z"></path>
<path transform="translate(0,0)" style="stroke-linecap: round; fill: rgb(51,185,242)" stroke-linecap="round" d="M1313.53 248.7612C1345.59 258.9093 1381.55 268.249 1412.8 279.0663 1408.66 281.7174 1405.2 276.9405 1404.92 280.1818 1403.91 291.8954 1400.06 317.0175 1402.37 327.2606 1406.48 328.7792 1406.48 325.878 1412.3 327.7268 1381.16 336.3312 1346.14 344.5485 1314.63 352.3266L1205.85 319.5375 1201.14 331.5273C1193.36 329.1513 1174.28 323.6902 1167.4 320.6139 1156.76 318.7032 1119.31 306.3952 1106.63 302.5277 1124.92 297.9178 1143.16 293.0999 1161.34 288.0759 1212.15 275.2848 1262.88 262.1796 1313.53 248.7612Z"></path>
<path transform="translate(0,0)" style="stroke-linecap: round; fill: rgb(51,185,242)" stroke-linecap="round" d="M1106.63 302.5259C1124.92 297.916 1143.16 293.0981 1161.34 288.0741 1161.54 292.9961 1161.47 291.9717 1163.93 295.8382 1164.34 296.4835 1162.94 306.2143 1162.71 307.2258 1160.87 315.254 1161.32 316.6835 1167.4 320.6121 1156.76 318.7013 1119.31 306.3934 1106.63 302.5259Z"></path>
<path transform="translate(0,0)" style="stroke-linecap: round; fill: rgb(51,185,242)" stroke-linecap="round" d="M1194.03 379.2566C1196.36 371.0233 1207.4 336.4815 1210.91 329.2066L1212.03 329.2256C1222.07 331.3004 1239.08 336.9717 1249.56 340.156 1271.1 346.5805 1292.57 353.2352 1313.97 360.118 1348.11 350.5031 1384.57 343.4803 1418.13 333.0031 1423.26 348.7774 1428.19 364.6178 1432.91 380.5181 1386.34 374.5817 1352.57 395.263 1313.42 418.2382 1289.6 404.6678 1264.99 390.4911 1238.21 383.5313 1234.81 382.647 1223.83 380.8623 1221.31 379.7138 1212.23 378.8965 1203.15 379.1546 1194.03 379.2566Z"></path>
<path transform="translate(0,0)" style="stroke-linecap: round; fill: rgb(51,185,242)" stroke-linecap="round" d="M1194.03 379.2566C1196.36 371.0233 1207.4 336.4815 1210.91 329.2066L1212.03 329.2256C1222.53 337.644 1219.95 364.6128 1219.79 377.808 1221.47 377.9881 1223.13 377.803 1224.02 378.7284 1223.11 379.0475 1222.21 379.3767 1221.31 379.7138 1212.23 378.8965 1203.15 379.1546 1194.03 379.2566Z"></path>
<path transform="translate(0,0)" style="stroke-linecap: round; fill: rgb(51,185,242)" stroke-linecap="round" d="M1498.83 396.7926C1550.43 396.1413 1602.52 397.0597 1654.23 396.7615 1654.08 415.2629 1654.07 433.7643 1654.21 452.2657L1559.6 452.1557C1543.94 452.1297 1524.62 451.5555 1509.22 452.2257 1506.09 441.8396 1502.09 426.7305 1496.26 418.017L1495.32 416.7385C1495.06 411.4454 1494.41 402.2888 1496.2 397.5969L1498.83 396.7926Z"></path>
<path transform="translate(0,0)" style="stroke-linecap: round; fill: rgb(51,185,242)" stroke-linecap="round" d="M1517.36 655.4429C1532 654.8527 1549.35 655.3319 1564.32 655.3369L1654.15 655.3759C1654 672.7048 1654.21 690.2318 1654.29 707.5768L1595.75 707.7789C1566.98 708.6492 1537.14 707.7218 1508.31 707.8889 1492.36 707.9819 1477.26 707.0986 1461.28 708.5672 1485.25 691.1482 1499.05 678.9713 1517.36 655.4429Z"></path>
<path transform="translate(0,0)" style="stroke-linecap: round; fill: rgb(51,185,242)" stroke-linecap="round" d="M1412.3 327.7254C1406.48 325.8766 1406.48 328.7778 1402.37 327.2592 1400.06 317.0161 1403.91 291.894 1404.92 280.1803 1405.2 276.939 1408.66 281.716 1412.8 279.0649 1422.83 282.0891 1433.36 284.9613 1443.03 289.0189 1450.84 292.2922 1465.58 305.4514 1472.92 305.8016 1471.37 297.2852 1457.56 293.6627 1456.73 289.4991 1465.15 287.2222 1476.2 298.2756 1482.03 298.6527 1479.82 307.1711 1487.94 313.8048 1487.55 322.0101L1487.48 356.92C1504.04 368.2536 1490.91 391.4068 1497.46 396.7349L1498.83 396.798 1496.2 397.6023C1494.41 402.2942 1495.06 411.4508 1495.32 416.7439L1496.26 418.0225C1491.13 418.5337 1484.68 417.8164 1479.28 417.8654L1476.3 417.8824C1474.38 417.8994 1474.38 418.0205 1472.74 416.878 1469.91 408.0415 1470.27 378.8478 1471.37 368.5727 1472.05 362.1651 1474.68 360.3034 1479.43 356.75 1479.2 345.8946 1479.2 335.0363 1479.42 324.1809 1464.2 328.5157 1443.23 333.8868 1427.89 337.1931L1423.44 325.0403 1412.3 327.7254Z"></path>
<path transform="translate(0,0)" style="stroke-linecap: round; fill: rgb(51,185,242)" stroke-linecap="round" d="M1476.3 417.8768C1476.58 412.9058 1476.85 402.3456 1478.35 398.313 1479.36 405.4999 1479.28 410.6219 1479.28 417.8598L1476.3 417.8768Z"></path>
<path transform="translate(0,0)" style="stroke-linecap: round; fill: rgb(51,185,242)" stroke-linecap="round" d="M1574.2 526.4594C1595.43 525.9111 1618.56 526.3933 1639.93 526.4163 1640.31 543.2781 1639.97 561.4574 1639.97 578.4251L1630.25 578.3991 1561.44 578.4031C1565.92 561.3323 1570.02 543.6442 1574.2 526.4594Z"></path>
<path transform="translate(0,0)" style="stroke-linecap: round; fill: rgb(51,185,242)" stroke-linecap="round" d="M1482.0298 298.6518C1497.4698 302.1282 1513.5198 308.7239 1527.7898 312.0272 1514.6998 315.2785 1500.6098 319.082 1487.5498 322.0092 1487.9398 313.8039 1479.8198 307.1702 1482.0298 298.6518Z"></path>
</svg>